<svg xmlns="http://www.w3.org/2000/svg" viewBox="0 0 100 120" width="100" height="120">
  <defs>
    <linearGradient id="body" x1="0%" y1="0%" x2="100%" y2="100%">
      <stop offset="0%" style="stop-color:#E891B2"/>
      <stop offset="100%" style="stop-color:#C94080"/>
    </linearGradient>
    <linearGradient id="pallu" x1="0%" y1="0%" x2="100%" y2="100%">
      <stop offset="0%" style="stop-color:#F4C2D7"/>
      <stop offset="100%" style="stop-color:#E891B2"/>
    </linearGradient>
    <linearGradient id="hair" x1="0%" y1="0%" x2="50%" y2="100%">
      <stop offset="0%" style="stop-color:#6A1B6A"/>
      <stop offset="100%" style="stop-color:#8B1A4A"/>
    </linearGradient>
  </defs>

  <!-- Hair flowing back -->
  <path d="M52 10 C58 6, 64 8, 62 16 C60 22, 56 26, 54 20 C52 16, 54 12, 52 10Z" fill="url(#hair)"/>
  <path d="M62 16 C68 14, 72 20, 68 26 C64 30, 58 28, 60 22Z" fill="url(#hair)" opacity="0.7"/>

  <!-- Head -->
  <circle cx="50" cy="18" r="8" fill="#F5D0C5"/>

  <!-- Hair on head -->
  <path d="M42 16 C42 10, 50 6, 56 10 C58 12, 58 16, 56 14 C52 10, 46 12, 44 16Z" fill="url(#hair)"/>

  <!-- Body - elegant curve -->
  <path d="M46 26 C44 30, 42 40, 40 52 C38 64, 36 80, 34 95 C33 100, 30 108, 28 112 Q26 116, 32 114 C38 110, 42 100, 44 90 C46 80, 48 68, 50 58 C52 48, 54 38, 54 26Z" fill="url(#body)"/>

  <!-- Saree pallu - flowing elegantly -->
  <path d="M54 26 C58 24, 62 28, 64 36 C66 44, 64 56, 58 68 C54 76, 48 82, 44 80 C48 74, 54 64, 58 54 C62 44, 62 34, 58 28Z" fill="url(#pallu)"/>

  <!-- Pallu tail flowing -->
  <path d="M64 36 C70 32, 76 38, 74 46 C72 52, 66 56, 64 50 C62 46, 66 40, 64 36Z" fill="url(#pallu)" opacity="0.6"/>
  <path d="M74 46 C78 44, 82 50, 78 56 C76 58, 72 56, 74 52Z" fill="url(#pallu)" opacity="0.35"/>

  <!-- Saree bottom flow -->
  <path d="M28 112 C24 116, 18 118, 16 114 C14 110, 20 108, 26 110Z" fill="url(#body)" opacity="0.5"/>

  <!-- Arm graceful -->
  <path d="M46 34 C40 36, 34 42, 30 48 C28 50, 30 52, 32 50 C36 46, 40 40, 44 36Z" fill="#F5D0C5"/>
</svg>
